# xmcd
#
# Track frame offsets: 
#        150
#        3232
#        24447
#        43512
#        59112
#        78987
#        94810
#        113407
#        132367
#        143900
#        167792
#        186630
#        206052
#        213437
#        228415
#
# Disc length: 3290 seconds
#
# Revision: 6
# Processed by: cddbd v1.5.2PL0 Copyright (c) Steve Scherf et al.
# Submitted via: ExactAudioCopy v0.99pb4
#
DISCID=d20cd80f
DTITLE=Angie Stone - Black Diamond
DYEAR=1999
DGENRE=R&B
TTITLE0=Freedom (Intro)
TTITLE1=No More Rain (In This Cloud)
TTITLE2=Green Grass Vapors
TTITLE3=Everyday
TTITLE4=Coulda Been You
TTITLE5=Visions
TTITLE6=Life Story
TTITLE7=Just A Pimp
TTITLE8=Trouble Man
TTITLE9=Bone 2 Pic (Wit U)
TTITLE10=Man Loves His Money
TTITLE11=Love Junkie
TTITLE12=Black Diamonds and Blue Pearls (Interlude)
TTITLE13=Heaven Help[*]
TTITLE14=Life Story [Jazz Hop Mix] [*]
EXTD=
EXTT0=
EXTT1=
EXTT2=
EXTT3=
EXTT4=
EXTT5=
EXTT6=
EXTT7=
EXTT8=
EXTT9=
EXTT10=
EXTT11=
EXTT12=
EXTT13=
EXTT14=
PLAYORDER=
